PathFileType	4	(X/Y/Z)	Walk10.trc
DataRate	CameraRate	NumFrames	NumMarkers	Units	OrigDataRate	OrigDataStartFrame	OrigNumFrames
200.000000	200.000000	8	59	mm	200.000000	490	520
Frame#	Times		LFHD		RFHD		CLAV		RACR1		RUA1		RFA1		LACR1		LUA1		LFA1		LWRU		RTH1		RTH3		LTH2		LWRR		RWRR		LCAR		RElbow		RBack		RTB3		RCAR		LTH3		RTB1		LLFC		RWRU		RTB4		T10		RASI		C7		LTH4		LBHD		LASI		STRN		RBHD		RPSI		LTB2		LTH1		RTH2		LTB4		LToe		LTB1		LElbowM		LMMAL		RTH4		LElbow		RToe		LTB3		LCAL		LMT1		RElbowM		LMT5		RMT1		RTB2		LPSI		LLMAL		RLFC		RMT5		RCAL		RLMAL		RMMAL
			X1	Y1	Z1	X2	Y2	Z2	X3	Y3	Z3	X4	Y4	Z4	X5	Y5	Z5	X6	Y6	Z6	X7	Y7	Z7	X8	Y8	Z8	X9	Y9	Z9	X10	Y10	Z10	X11	Y11	Z11	X12	Y12	Z12	X13	Y13	Z13	X14	Y14	Z14	X15	Y15	Z15	X16	Y16	Z16	X17	Y17	Z17	X18	Y18	Z18	X19	Y19	Z19	X20	Y20	Z20	X21	Y21	Z21	X22	Y22	Z22	X23	Y23	Z23	X24	Y24	Z24	X25	Y25	Z25	X26	Y26	Z26	X27	Y27	Z27	X28	Y28	Z28	X29	Y29	Z29	X30	Y30	Z30	X31	Y31	Z31	X32	Y32	Z32	X33	Y33	Z33	X34	Y34	Z34	X35	Y35	Z35	X36	Y36	Z36	X37	Y37	Z37	X38	Y38	Z38	X39	Y39	Z39	X40	Y40	Z40	X41	Y41	Z41	X42	Y42	Z42	X43	Y43	Z43	X44	Y44	Z44	X45	Y45	Z45	X46	Y46	Z46	X47	Y47	Z47	X48	Y48	Z48	X49	Y49	Z49	X50	Y50	Z50	X51	Y51	Z51	X52	Y52	Z52	X53	Y53	Z53	X54	Y54	Z54	X55	Y55	Z55	X56	Y56	Z56	X57	Y57	Z57	X58	Y58	Z58	X59	Y59	Z59

490	2.45	889.53	1444.6	-44.802	878.26	1433.9	50.676	864.37	1196	-9.3117	781.48	1227.3	165.71	788.93	1092.6	255.38	865.47	854.68	306.38	795.89	1212.8	-202.13	833.74	1049.6	-264.73	898.7	853.36	-300.57	923.77	744.5	-316.83	827.89	649.08	217.75	886.5	489.79	179.14	852.97	580.27	-158.19	958.83	762.36	-267.77	887.95	754.46	278.4	978.35	718.32	-313.19	795.74	965.38	291.99	670.93	1155	100.51	784.13	158.98	90.893	910.07	706.45	334.58	802.01	485.97	-151.21	882.55	297.54	114.67	824.91	394.24	-111.03	855.46	756.75	342.3	829.49	229.3	102.4	641.09	1073.2	-4.1343	865.99	842.08	162.81	720.76	1274.7	-19.499	799.27	568.5	-180.82	763.71	1366.8	-79.869	848.43	827.71	-159.48	918.29	1093.1	1.2696	749.09	1359.9	53.576	606.25	848.26	63.656	795.69	209.57	-95.042	797.65	652.39	-203.6	907.96	592.9	182.84	811.77	209.79	-34.991	912.14	30.178	-20.574	834.69	294.5	-42.07	778.98	903.52	-224.47	757.75	73.731	16.688	855.05	567.96	200.87	814.02	929.95	-286.71	840.74	42.337	111.97	797.53	127.95	-29.19	692.62	45.668	-18.71	859.41	34.094	2.6149	748.6	926.76	222.98	818.37	21.234	-83.776	801.47	49.991	67.252	794.85	247.31	149.12	597.89	852.14	-41.813	738	58.412	-61.553	875.75	408.85	160.7	762.39	54.07	146.06	650.99	124.24	62.145	705.78	126.67	117.29	733.09	126.55	38.478
491	2.455	895.24	1444.8	-44.68	884	1434	50.791	870.11	1196	-9.2226	787.2	1227.4	165.66	794.56	1092.8	255.36	870.82	854.95	306.62	801.79	1213.1	-202.11	839.06	1049.9	-265.05	906.27	854.49	-299.92	933	745.96	-315.41	834.22	649.47	217.66	894.86	491.11	178.16	857.13	579.76	-158	967.46	764.62	-266.23	893.35	754.74	278.78	987.95	720.66	-311.28	801.11	965.65	292.14	676.61	1155.2	100.32	799.62	157.14	90.736	915.43	706.78	335.03	805.53	485.73	-151.11	893.91	298.5	114.02	827.72	393.73	-110.98	860.78	757.06	342.63	842.87	228.78	101.99	646.78	1073.4	-4.4268	871	842.41	163.26	726.54	1274.8	-19.547	803.36	568.22	-180.6	769.45	1366.9	-79.79	853.77	827.45	-159.58	923.98	1093.1	2.0342	754.85	1359.9	53.647	611.52	848.71	63.276	797.11	209.23	-94.961	802.31	652.2	-203.43	915.01	594.49	182.44	813.1	209.37	-34.892	912.32	30.059	-20.55	836.67	293.9	-41.932	785.36	903.53	-224.76	757.96	73.714	16.767	862.42	568.76	200.35	820.4	930.1	-286.92	860.5	43.106	111.12	798.15	127.63	-29.089	692.74	45.946	-18.619	859.48	34.107	2.5981	753.88	927.03	223.21	818.37	21.27	-83.739	820.51	49.304	66.818	807.93	245.74	148.9	603.44	852.49	-42.126	738.18	58.534	-61.44	884.68	409.76	159.93	781.95	51.755	145.92	667.39	118.05	62.807	722.53	122.34	117.6	749.36	123.21	38.652
492	2.46	900.96	1444.9	-44.537	889.73	1434	50.926	875.85	1196	-9.1365	792.93	1227.4	165.61	800.19	1092.9	255.35	876.19	855.18	306.9	807.71	1213.3	-202.08	844.38	1050.2	-265.38	913.81	855.58	-299.29	942.17	747.39	-313.99	840.54	649.83	217.6	903.02	492.35	177.16	861.31	579.24	-157.8	976	766.84	-264.7	898.8	754.99	279.2	997.46	722.97	-309.37	806.49	965.88	292.31	682.29	1155.3	100.13	815.21	155.33	90.567	920.82	707.08	335.52	809.09	485.46	-151.01	905.12	299.44	113.37	830.57	393.21	-110.94	866.13	757.32	342.99	856.24	228.26	101.57	652.47	1073.5	-4.7112	876.01	842.69	163.7	732.32	1274.9	-19.597	807.47	567.92	-180.38	775.21	1367	-79.698	859.14	827.12	-159.6	929.66	1093	2.749	760.61	1359.9	53.727	616.82	849.08	62.949	798.54	208.89	-94.885	806.99	651.98	-203.24	921.97	595.97	182.04	814.44	208.94	-34.798	912.49	29.944	-20.53	838.67	293.29	-41.802	791.75	903.51	-225.03	758.17	73.704	16.837	869.67	569.49	199.84	826.77	930.21	-287.13	880.27	43.978	110.2	798.78	127.32	-28.988	692.87	46.249	-18.525	859.56	34.125	2.5755	759.2	927.25	223.43	818.37	21.305	-83.694	839.64	48.709	66.326	821	244.12	148.67	608.98	852.78	-42.394	738.37	58.67	-61.332	893.37	410.58	159.16	801.65	49.53	145.73	684.11	111.83	63.45	739.51	117.99	117.9	765.82	119.87	38.811
493	2.465	906.68	1444.9	-44.375	895.47	1433.9	51.08	881.59	1196	-9.0531	798.65	1227.4	165.57	805.83	1092.9	255.35	881.57	855.37	307.21	813.64	1213.5	-202.05	849.69	1050.4	-265.72	921.3	856.63	-298.67	951.26	748.81	-312.58	846.84	650.13	217.57	910.97	493.51	176.16	865.5	578.71	-157.58	984.46	769.03	-263.19	904.29	755.21	279.64	1006.9	725.23	-307.46	811.87	966.05	292.48	687.97	1155.3	99.952	830.89	153.55	90.388	926.26	707.34	336.04	812.68	485.17	-150.92	916.17	300.36	112.71	833.47	392.67	-110.9	871.51	757.54	343.38	869.58	227.74	101.13	658.15	1073.6	-4.9857	881.03	842.92	164.13	738.1	1274.9	-19.648	811.6	567.6	-180.16	780.97	1367	-79.595	864.56	826.71	-159.55	935.33	1092.9	3.4042	766.37	1359.8	53.815	622.15	849.35	62.685	800	208.54	-94.813	811.66	651.74	-203.04	928.82	597.33	181.64	815.81	208.51	-34.708	912.66	29.836	-20.514	840.71	292.66	-41.681	798.15	903.44	-225.28	758.39	73.701	16.903	876.82	570.17	199.35	833.12	930.27	-287.33	900.05	44.98	109.27	799.42	127	-28.889	693.01	46.579	-18.426	859.64	34.143	2.5515	764.56	927.39	223.64	818.39	21.342	-83.642	858.86	48.231	65.803	834.07	242.46	148.43	614.51	853.01	-42.607	738.57	58.818	-61.229	901.8	411.29	158.39	821.46	47.431	145.52	701.15	105.62	64.068	756.7	113.66	118.17	782.47	116.55	38.959
494	2.47	912.42	1444.9	-44.194	901.21	1433.8	51.252	887.33	1195.9	-8.9718	804.37	1227.3	165.54	811.48	1092.9	255.35	886.97	855.52	307.57	819.59	1213.6	-202.01	855.02	1050.6	-266.05	928.75	857.64	-298.06	960.28	750.2	-311.17	853.12	650.38	217.57	918.69	494.57	175.16	869.72	578.17	-157.35	992.85	771.16	-261.69	909.84	755.38	280.12	1016.2	727.44	-305.55	817.26	966.16	292.67	693.64	1155.4	99.777	846.66	151.84	90.204	931.73	707.57	336.59	816.31	484.86	-150.83	927.06	301.27	112.05	836.41	392.11	-110.87	876.91	757.71	343.78	882.88	227.25	100.69	663.83	1073.6	-5.2481	886.08	843.11	164.55	743.88	1274.9	-19.697	815.75	567.25	-179.95	786.74	1367	-79.48	870.01	826.23	-159.41	940.98	1092.7	3.9911	772.13	1359.7	53.912	627.52	849.53	62.489	801.48	208.19	-94.744	816.33	651.47	-202.84	935.56	598.55	181.25	817.21	208.06	-34.62	912.82	29.734	-20.503	842.79	292.01	-41.569	804.56	903.33	-225.51	758.62	73.709	16.968	883.84	570.77	198.88	839.47	930.28	-287.52	919.82	46.142	108.35	800.08	126.68	-28.789	693.15	46.938	-18.322	859.72	34.158	2.5312	769.97	927.47	223.84	818.41	21.38	-83.581	878.15	47.896	65.276	847.12	240.77	148.19	620.04	853.19	-42.759	738.78	58.98	-61.128	909.96	411.88	157.63	841.39	45.498	145.3	718.5	99.434	64.656	774.1	109.36	118.42	799.31	113.28	39.097
495	2.475	918.16	1444.8	-43.995	906.96	1433.7	51.441	893.07	1195.7	-8.892	810.09	1227.2	165.51	817.13	1092.9	255.35	892.39	855.62	307.95	825.56	1213.7	-201.97	860.38	1050.7	-266.38	936.16	858.59	-297.47	969.21	751.56	-309.78	859.38	650.57	217.61	926.17	495.52	174.17	873.95	577.63	-157.12	1001.1	773.23	-260.21	915.42	755.51	280.62	1025.4	729.59	-303.65	822.64	966.21	292.87	699.3	1155.3	99.611	862.48	150.2	90.02	937.24	707.75	337.16	819.98	484.53	-150.74	937.77	302.16	111.37	839.4	391.53	-110.84	882.34	757.82	344.2	896.13	226.78	100.25	669.5	1073.6	-5.4968	891.15	843.24	164.95	749.67	1274.8	-19.742	819.92	566.88	-179.75	792.51	1366.9	-79.353	875.49	825.69	-159.2	946.63	1092.5	4.5026	777.89	1359.5	54.02	632.92	849.62	62.369	802.97	207.83	-94.678	820.99	651.19	-202.63	942.2	599.63	180.86	818.63	207.61	-34.534	912.97	29.64	-20.499	844.9	291.35	-41.466	810.98	903.17	-225.72	758.87	73.731	17.037	890.73	571.29	198.43	845.8	930.24	-287.69	939.56	47.49	107.48	800.75	126.36	-28.689	693.29	47.326	-18.211	859.8	34.163	2.5208	775.41	927.47	224.05	818.44	21.421	-83.512	897.5	47.731	64.763	860.15	239.07	147.93	625.56	853.32	-42.844	739	59.157	-61.03	917.85	412.36	156.87	861.4	43.767	145.09	736.16	93.313	65.21	791.69	105.15	118.66	816.32	110.07	39.227
496	2.48	923.9	1444.7	-43.781	912.7	1433.5	51.645	898.81	1195.5	-8.8128	815.81	1226.9	165.5	822.78	1092.8	255.37	897.82	855.67	308.37	831.53	1213.8	-201.92	865.76	1050.8	-266.69	943.52	859.49	-296.9	978.07	752.89	-308.41	865.61	650.71	217.68	933.41	496.35	173.19	878.19	577.07	-156.9	1009.4	775.24	-258.74	921.04	755.6	281.14	1034.5	731.69	-301.77	828.04	966.2	293.08	704.96	1155.2	99.454	878.36	148.67	89.84	942.78	707.88	337.77	823.67	484.17	-150.65	948.28	303.06	110.7	842.43	390.94	-110.81	887.79	757.89	344.63	909.31	226.35	99.799	675.18	1073.5	-5.7297	896.25	843.33	165.35	755.47	1274.7	-19.779	824.09	566.49	-179.56	798.29	1366.8	-79.213	881	825.08	-158.91	952.26	1092.2	4.9332	783.65	1359.3	54.138	638.37	849.63	62.329	804.49	207.46	-94.612	825.63	650.87	-202.42	948.72	600.55	180.48	820.07	207.15	-34.45	913.13	29.554	-20.501	847.06	290.66	-41.371	817.42	902.96	-225.91	759.15	73.769	17.113	897.48	571.72	198.02	852.12	930.16	-287.86	959.26	49.054	106.67	801.45	126.04	-28.588	693.45	47.745	-18.091	859.88	34.154	2.5258	780.89	927.4	224.25	818.49	21.466	-83.434	916.91	47.762	64.282	873.13	237.37	147.68	631.07	853.4	-42.855	739.23	59.349	-60.933	925.45	412.71	156.12	881.48	42.272	144.89	754.12	87.285	65.725	809.46	101.05	118.86	833.5	106.97	39.348
497	2.485	929.66	1444.5	-43.55	918.45	1433.2	51.865	904.55	1195.3	-8.7332	821.52	1226.7	165.5	828.43	1092.6	255.4	903.26	855.67	308.81	837.52	1213.8	-201.87	871.18	1050.9	-266.99	950.85	860.34	-296.33	986.84	754.17	-307.04	871.81	650.77	217.8	940.39	497.04	172.23	882.45	576.49	-156.69	1017.5	777.18	-257.29	926.7	755.63	281.68	1043.5	733.72	-299.89	833.44	966.12	293.3	710.61	1155.1	99.309	894.26	147.26	89.669	948.36	707.97	338.39	827.4	483.8	-150.56	958.59	303.94	110.02	845.52	390.33	-110.79	893.27	757.89	345.08	922.41	225.98	99.355	680.85	1073.4	-5.9449	901.39	843.37	165.73	761.27	1274.6	-19.806	828.27	566.07	-179.37	804.07	1366.6	-79.06	886.54	824.42	-158.55	957.89	1091.8	5.2792	789.41	1359	54.267	643.86	849.56	62.371	806.02	207.08	-94.547	830.26	650.54	-202.21	955.12	601.31	180.13	821.54	206.68	-34.366	913.28	29.475	-20.511	849.24	289.95	-41.283	823.87	902.71	-226.07	759.46	73.824	17.201	904.09	572.06	197.64	858.44	930.03	-288.01	978.9	50.857	105.94	802.16	125.73	-28.486	693.61	48.193	-17.961	859.96	34.128	2.5516	786.4	927.25	224.47	818.53	21.515	-83.348	936.36	48.018	63.844	886.06	235.7	147.41	636.59	853.43	-42.789	739.47	59.559	-60.838	932.76	412.94	155.39	901.6	41.044	144.72	772.35	81.388	66.194	827.38	97.089	119.04	850.82	103.99	39.458
